<?xml version="1.0" encoding="UTF-8" standalone="no"?>
<!-- Created with Inkscape (http://www.inkscape.org/) -->

<svg
   version="1.1"
   id="svg3778"
   width="720"
   height="270"
   viewBox="0 0 720 270"
   sodipodi:docname="uq_logo0.svg"
   inkscape:version="1.2.2 (b0a8486541, 2022-12-01)"
   xmlns:inkscape="http://www.inkscape.org/namespaces/inkscape"
   xmlns:sodipodi="http://sodipodi.sourceforge.net/DTD/sodipodi-0.dtd"
   xmlns="http://www.w3.org/2000/svg"
   xmlns:svg="http://www.w3.org/2000/svg">
  <defs
     id="defs3782" />
  <sodipodi:namedview
     id="namedview3780"
     pagecolor="#ffffff"
     bordercolor="#000000"
     borderopacity="0.25"
     inkscape:showpageshadow="2"
     inkscape:pageopacity="0.0"
     inkscape:pagecheckerboard="0"
     inkscape:deskcolor="#d1d1d1"
     showgrid="false"
     inkscape:zoom="2.3313491"
     inkscape:cx="392.47661"
     inkscape:cy="211.0366"
     inkscape:window-width="2560"
     inkscape:window-height="1367"
     inkscape:window-x="0"
     inkscape:window-y="0"
     inkscape:window-maximized="1"
     inkscape:current-layer="g3784" />
  <g
     inkscape:groupmode="layer"
     inkscape:label="Image"
     id="g3784">
    <path
       style="fill:#ffffff;stroke-width:0.16;fill-opacity:1"
       d="m 105.34725,217.64139 c -26.166969,-8.76453 -47.892521,-26.61837 -59.103592,-48.57075 -3.95415,-7.74261 -6.270908,-15.23566 -7.395765,-23.92 -0.259587,-2.00411 -0.283249,-5.43078 -0.327857,-47.480001 l -0.04808,-45.32 h 70.086964 70.08697 l -0.0506,45.88 c -0.0466,42.286841 -0.072,46.026941 -0.32422,47.756261 -1.18104,8.09866 -3.07449,14.35639 -6.50215,21.48913 -10.0445,20.90195 -29.87232,38.4914 -54.30901,48.17802 -1.6269,0.64489 -8.67901,3.12222 -8.8059,3.0934 -0.008,-0.002 -1.49574,-0.49947 -3.30675,-1.10606 z m 6.02997,-3.43747 c 19.85631,-6.76812 37.23026,-19.10392 49.04698,-34.82418 6.92208,-9.20873 11.61379,-19.29056 13.65346,-29.33943 1.19909,-5.90754 1.10037,-1.60512 1.1576,-50.449861 l 0.0514,-43.88019 -66.68334,0.04019 -66.68334,0.04019 v 42.88 c 0,46.051501 -0.03144,44.174521 0.825352,49.280001 4.534904,27.02284 27.830643,52.65606 58.774648,64.67206 1.91582,0.74394 6.79706,2.43141 7.05722,2.43973 0.14147,0.004 1.40147,-0.38181 2.8,-0.85851 z M 68.479999,173.58127 c 3.103507,-1.63419 5.092678,-3.06311 7.498242,-5.38638 4.284063,-4.1375 7.217002,-9.66012 9.129266,-17.19009 0.63444,-2.49824 1.31526,-6.12473 1.175979,-6.26401 -0.153525,-0.15352 -5.072363,0.85664 -7.483488,1.53686 -5.591188,1.57737 -10.14963,3.78858 -13.519999,6.55828 -3.111127,2.55667 -5.642064,5.6947 -7.738489,9.59471 l -0.817066,1.52 1.6e-4,-41.52 1.6e-4,-41.520001 0.874958,1.642248 c 4.601419,8.636443 11.479549,13.629307 22.640276,16.434616 2.62731,0.660387 5.897427,1.279037 6.034785,1.141687 0.14829,-0.148293 -0.384067,-3.027337 -1.083291,-5.858551 -1.603988,-6.494682 -4.006868,-11.612112 -7.282244,-15.509051 -2.513035,-2.98993 -5.05364,-5.029946 -8.991259,-7.219664 l -1.710627,-0.951285 41.436318,0.0031 41.43631,0.0031 -1.45041,0.77004 c -9.4816,5.03387 -14.62708,12.747322 -17.27346,25.894158 -0.31142,1.547096 -0.52963,2.849493 -0.48492,2.894203 0.27688,0.27688 7.41341,-1.392289 10.55839,-2.469507 2.73576,-0.937049 7.13338,-3.123019 9.0364,-4.491811 3.75496,-2.700837 6.83999,-6.295381 9.14218,-10.652059 l 0.9465,-1.791165 -8e-4,41.680002 -8e-4,41.68 -0.86761,-1.64872 c -4.51668,-8.58311 -11.55683,-13.76408 -22.40546,-16.48864 -2.27774,-0.57204 -6.3112,-1.36477 -6.41515,-1.26083 -0.0955,0.0955 0.64468,3.9118 1.15568,5.95819 1.91231,7.6582 4.83984,13.25979 9.13296,17.47522 2.10062,2.06261 4.1082,3.51536 7.34159,5.31265 l 1.74491,0.96991 -41.67999,-0.002 -41.680001,-0.002 1.6,-0.8425 z m 41.540351,-32.50094 c 0.58319,-0.12362 1.91519,-0.57176 2.96,-0.99588 l 1.89965,-0.77111 9.72,-0.0494 9.72,-0.0494 v -3.35199 -3.35198 h 4.40513 c 4.8934,0 5.08959,-0.0334 5.94947,-1.01275 1.10695,-1.26074 0.73428,-3.18768 -0.76435,-3.95223 -0.5708,-0.29119 -0.95687,-0.31502 -5.10388,-0.31502 H 134.32 v -4.8 -4.8 h 4.49581 c 4.88488,0 5.22516,-0.0531 5.9086,-0.92196 0.8242,-1.04779 0.78888,-2.41033 -0.0876,-3.38051 -0.8208,-0.90853 -1.24822,-0.97753 -6.05537,-0.97753 H 134.32 v -2.44405 -2.44404 l -1.62807,-0.71596 c -0.89544,-0.39377 -1.68744,-0.73995 -1.76,-0.76928 -0.0726,-0.0293 -0.13193,6.64866 -0.13193,14.84 v 14.89333 l -7.64,0.003 c -8.58722,0.003 -8.75429,0.0197 -11.34707,1.12661 -1.32099,0.56396 -1.79248,0.68396 -2.9436,0.74923 -1.35326,0.0767 -1.39624,0.0674 -3.38514,-0.73456 -1.10797,-0.44676 -2.47117,-0.88639 -3.02934,-0.97696 -0.59126,-0.0959 -4.136931,-0.16518 -8.494853,-0.16589 l -7.479999,-10e-4 v -15.04 c 0,-11.9305 -0.04135,-15.038 -0.2,-15.03031 -0.11,0.005 -0.92,0.42358 -1.8,0.92944 l -1.6,0.91976 -0.04417,2.43055 -0.04417,2.43056 h -3.13924 -3.13924 l -0.757709,-0.70875 c -0.817073,-0.76428 -1.771337,-1.12814 -2.509481,-0.95688 -1.288234,0.2989 -2.629,1.65268 -2.860866,2.88863 -0.0938,0.5 -0.143611,0.537 -0.722936,0.537 -0.631869,0 -1.262193,0.42168 -1.262193,0.8444 0,0.48605 0.492654,0.89801 1.131937,0.94653 0.626055,0.0475 0.658565,0.0788 1.028312,0.99096 0.451517,1.11382 1.041254,1.78804 1.91975,2.19477 1.23018,0.56956 2.668519,0.21208 3.539677,-0.87973 l 0.460323,-0.57692 3.16,-1e-5 h 3.16 v 4.8 4.8 l -3.16,-10e-6 h -3.16 l -0.432558,-0.54212 c -0.511597,-0.64118 -1.62111,-1.21787 -2.343096,-1.21787 -0.677629,0 -1.593128,0.3927 -2.164582,0.92849 -0.486458,0.45609 -1.215567,1.83956 -1.2182,2.31151 -0.0013,0.22442 -0.142679,0.28 -0.712491,0.28 -0.553272,0 -0.76616,0.0789 -0.96,0.3556 -0.32918,0.46997 -0.31418,0.69929 0.07093,1.0844 0.21028,0.21028 0.533332,0.32 0.942193,0.32 0.578104,0 0.629263,0.0377 0.721951,0.53175 0.132006,0.70365 0.899878,1.89539 1.493707,2.31824 0.261745,0.18638 0.802374,0.42619 1.201396,0.53291 0.625208,0.16722 0.830319,0.15401 1.483812,-0.0956 0.417073,-0.15929 1.02858,-0.5681 1.358905,-0.90848 l 0.600589,-0.61886 h 3.135476 3.135477 l 0.04325,3.32 0.04325,3.32 9.679999,0.08 9.68,0.08 1.84,0.73333 c 3.1344,1.24922 4.12267,1.42164 5.94035,1.03636 z M 106.96,120.73205 c 0,-9.49278 -0.0514,-13.24377 -0.1889,-13.78989 -0.26345,-1.04624 -1.49038,-2.2586 -2.77042,-2.73752 -1.94653,-0.7283 -5.069444,-0.68272 -9.200683,0.13426 -1.470985,0.2909 -2.984865,0.49071 -3.720883,0.49109 l -1.240884,6.4e-4 0.04088,13.88 0.04088,13.88 6.799999,0.09 c 7.177161,0.095 7.163421,0.0936 9.200001,0.91353 0.44,0.17714 0.854,0.28956 0.92,0.24982 0.066,-0.0397 0.12,-5.94011 0.12,-13.11195 z m 4.92921,12.74033 c 1.85733,-0.67784 3.34477,-0.79894 9.83167,-0.80043 l 5.72088,-0.001 -0.0409,-13.84197 -0.0409,-13.84198 -1.52,-0.0645 c -0.836,-0.0355 -2.384,-0.2517 -3.44,-0.48053 -2.68751,-0.58236 -5.61065,-0.83575 -7.12608,-0.61772 -2.34039,0.33671 -3.94247,1.25832 -4.61986,2.65762 -0.33059,0.68292 -0.33406,0.82918 -0.33406,14.07957 0,7.36422 0.0582,13.38949 0.12937,13.38949 0.0712,0 0.71909,-0.21522 1.43984,-0.47826 z m 146.71584,81.50979 c -3.00714,-0.72903 -5.15754,-2.99126 -5.57272,-5.86256 -0.0802,-0.55494 -0.14735,-3.58851 -0.14912,-6.74128 l -0.003,-5.73231 -0.4677,-0.46769 c -0.27493,-0.27493 -0.63762,-0.46769 -0.88,-0.46769 -0.36454,0 -0.4123,-0.0649 -0.4123,-0.56 v -0.56 h 3.76 3.76 v 0.56 c 0,0.45927 -0.0595,0.56 -0.33052,0.56 -0.50328,0 -0.92052,0.27989 -1.18782,0.7968 -0.20293,0.3924 -0.24166,1.42767 -0.24166,6.4584 0,5.56732 0.023,6.06543 0.32459,7.04199 0.42493,1.37574 1.45979,2.48575 2.70217,2.89841 2.40045,0.79731 5.4149,-0.37181 6.48248,-2.51414 l 0.41076,-0.82429 v -6.66379 c -2e-5,-7.53727 0.0599,-7.19338 -1.25261,-7.19338 -0.65608,0 -0.66741,-0.01 -0.66741,-0.56 v -0.56 h 3.04 3.04 v 0.56 c 0,0.55472 -0.007,0.56 -0.70042,0.56 -0.45588,0 -0.77705,0.0923 -0.92,0.26429 -0.17587,0.21168 -0.2355,1.65267 -0.29958,7.24 l -0.08,6.97571 -0.51349,1.08404 c -0.87984,1.85748 -2.51827,3.13476 -4.76013,3.71089 -1.17956,0.30313 -3.8242,0.30136 -5.08132,-0.003 z m 32.43494,-0.0448 c -0.528,-0.15822 -1.19043,-0.40896 -1.47205,-0.55722 -0.75435,-0.39707 -1.142,-0.34129 -1.45539,0.20946 -0.21471,0.37733 -0.38293,0.4792 -0.79256,0.48 l -0.52,0.002 v -3.6 -3.6 h 0.54157 c 0.53404,0 0.54302,0.0118 0.64763,0.84903 0.40736,3.26035 3.74947,5.66624 6.16169,4.43561 1.31474,-0.67072 2.12143,-2.20084 1.75828,-3.33505 -0.42087,-1.31445 -1.417,-2.17609 -5.02692,-4.34823 -3.31344,-1.99374 -4.15388,-3.13171 -4.15008,-5.61924 0.002,-1.22863 0.0584,-1.49219 0.5217,-2.43328 1.43507,-2.91506 4.45685,-3.79926 8.07142,-2.3618 1.22983,0.48908 1.67229,0.44975 1.8325,-0.16291 0.0584,-0.22324 0.2235,-0.30413 0.62086,-0.30413 h 0.54135 v 3.52 3.52 h -0.56 c -0.50754,0 -0.56,-0.0422 -0.56,-0.45096 0,-0.71049 -0.42528,-1.96044 -0.94671,-2.78246 -0.92473,-1.45784 -2.84788,-2.40347 -4.16612,-2.04851 -1.13877,0.30664 -2.24717,1.52945 -2.24717,2.47912 0,1.21839 0.95329,2.25298 3.26229,3.54045 3.31379,1.84776 4.91984,3.19872 5.80278,4.88111 0.39819,0.75876 0.45216,1.03262 0.45346,2.30125 0.002,1.26892 -0.054,1.55302 -0.4656,2.39129 -0.59402,1.20981 -1.53312,2.14871 -2.73964,2.739 -0.8276,0.40489 -1.15465,0.46955 -2.55129,0.5043 -1.17405,0.0292 -1.85845,-0.037 -2.562,-0.24784 z m -76.4,-0.42675 c 0,-0.49357 0.0484,-0.56 0.40795,-0.56 0.6314,0 1.23548,-0.38959 1.65061,-1.06453 0.20821,-0.33851 2.04458,-4.63986 4.08083,-9.55856 2.1318,-5.14948 3.82069,-9.01778 3.98144,-9.11918 0.20084,-0.12668 0.35623,-0.12749 0.55378,-0.003 0.15104,0.0953 2.09475,4.3789 4.31934,9.51918 4.23219,9.77912 4.46855,10.22596 5.40858,10.22596 0.34758,0 0.39747,0.0703 0.39747,0.56 v 0.56 h -3.76 -3.76 v -0.56 c 0,-0.52838 0.0302,-0.56 0.5352,-0.56 0.63453,0 1.1592,-0.48214 0.99469,-0.91404 -0.0599,-0.15727 -0.51006,-1.20396 -1.00032,-2.32596 l -0.89141,-2.04 h -3.30933 -3.30934 l -0.91315,2.2 c -0.50223,1.21 -0.91162,2.28592 -0.90975,2.39093 0.005,0.27531 0.65282,0.68907 1.07901,0.68907 0.30979,0 0.3644,0.0839 0.3644,0.56 v 0.56 h -2.96 -2.96 v -0.56 z m 11.49232,-9.07951 c -1.04811,-2.46305 -1.76128,-4.04555 -1.8771,-4.16524 -0.0934,-0.0965 -1.69042,3.34316 -2.34219,5.04475 -0.0992,0.25902 0.0733,0.28 2.30273,0.28 h 2.40999 z m 93.94768,9.10058 c 0,-0.51096 0.0344,-0.54355 0.66347,-0.62794 0.36493,-0.0489 0.81493,-0.24036 1,-0.4254 0.33213,-0.33202 0.3371,-0.44428 0.38073,-8.57208 l 0.0442,-8.23565 h -2.26021 -2.2602 l -0.52751,0.52751 c -0.5298,0.52981 -0.87793,1.41338 -0.8796,2.23249 0,0.3932 -0.0585,0.44 -0.54272,0.44 h -0.54182 l 0.0742,-2.44 c 0.0408,-1.342 0.10237,-2.53 0.13682,-2.64 0.0491,-0.15673 1.9167,-0.2 8.63267,-0.2 6.71646,0 8.58339,0.0433 8.63174,0.2 0.034,0.11 0.10534,1.298 0.15869,2.64 l 0.097,2.44 h -0.54141 c -0.53038,0 -0.54334,-0.0163 -0.63614,-0.79991 -0.0521,-0.43995 -0.21586,-1.05512 -0.36388,-1.36705 -0.42545,-0.89659 -0.86636,-1.03304 -3.33801,-1.03304 h -2.16795 l 0.004,7.72 c 0.002,4.246 0.0688,8.00013 0.14822,8.34251 0.1883,0.81178 0.4596,1.06267 1.26594,1.17083 0.62742,0.0842 0.66201,0.11696 0.66201,0.62773 v 0.53893 H 324 320.08 v -0.53893 z m 28.48,-0.0211 c 0,-0.50367 0.0442,-0.56024 0.44,-0.56235 0.69518,-0.004 1.22388,-0.35911 1.43097,-0.96183 0.24925,-0.72547 0.28701,-15.3086 0.0419,-16.1911 -0.19773,-0.71193 -0.67491,-1.08472 -1.38849,-1.08472 -0.49264,0 -0.5244,-0.0339 -0.5244,-0.56 v -0.56 l 3.08,-0.04 c 7.21185,-0.0937 8.96648,0.19097 10.67116,1.73106 1.04632,0.94528 1.33871,1.6541 1.41655,3.43407 0.0588,1.34369 0.0226,1.6197 -0.30432,2.32 -0.48925,1.04811 -1.75829,2.28726 -2.91442,2.84577 -0.66019,0.31892 -0.888,0.50493 -0.78315,0.63943 0.0813,0.10432 1.45341,1.89375 3.04905,3.97652 2.92581,3.81896 3.50212,4.45315 4.04671,4.45315 0.23438,0 0.29841,0.12016 0.29841,0.56 v 0.56 h -2.45491 -2.45491 l -3.42614,-4.50323 c -1.88439,-2.47678 -3.54189,-4.57624 -3.68335,-4.66547 -0.14145,-0.0892 -0.37497,-0.11703 -0.51894,-0.0618 -0.23,0.0883 -0.26128,0.47468 -0.25792,3.18547 0.005,4.2459 0.13901,4.70732 1.41416,4.87836 0.62742,0.0842 0.66202,0.11696 0.66202,0.62773 v 0.53893 h -3.92 -3.92 z m 8.51284,-10.72869 c 2.78821,-0.95003 3.6141,-4.42237 1.4945,-6.2834 -0.9869,-0.86651 -2.50338,-1.28518 -3.59269,-0.99186 l -0.65465,0.17628 v 3.56717 c 0,1.96194 0.048,3.61517 0.10667,3.67383 0.19957,0.19958 1.91363,0.10759 2.64617,-0.14202 z m 25.88715,10.72869 c 0,-0.51229 0.0399,-0.56 0.46773,-0.56 0.61762,0 1.37616,-0.65482 1.83128,-1.58085 0.19979,-0.40653 1.97776,-4.64817 3.95104,-9.42587 3.1592,-7.64905 3.63389,-8.69829 3.97376,-8.78359 0.26011,-0.0653 0.44906,-0.0106 0.57941,0.16766 0.1064,0.14549 1.97226,4.38611 4.14635,9.42359 4.1821,9.6901 4.45397,10.19906 5.44808,10.19906 0.35317,0 0.40235,0.0685 0.40235,0.56 v 0.56 h -3.76 -3.76 v -0.56 c 0,-0.51555 0.0381,-0.56 0.48,-0.56 0.26743,0 0.62239,-0.14239 0.80152,-0.32152 0.2926,-0.29259 0.30175,-0.36813 0.10178,-0.84 -0.12085,-0.28517 -0.57027,-1.32848 -0.9987,-2.31848 l -0.779,-1.8 h -3.30424 -3.30424 l -0.81065,1.88879 c -1.23231,2.87122 -1.1888,2.70887 -0.8236,3.07407 0.17443,0.17443 0.49713,0.31714 0.71713,0.31714 0.35048,0 0.4,0.0693 0.4,0.56 v 0.56 h -2.88 -2.88 z m 11.84,-8.05522 c 0,-0.17315 -2.1563,-5.11441 -2.29036,-5.24848 -0.0554,-0.0554 -0.16829,0.0713 -0.25095,0.28151 -0.0826,0.2102 -0.6196,1.44419 -1.19326,2.74219 l -1.04299,2.36 h 2.38878 c 1.31382,0 2.38878,-0.0609 2.38878,-0.13522 z m 24.64,8.05522 c 0,-0.5132 0.0394,-0.56 0.47107,-0.56 0.26725,0 0.66533,-0.16704 0.92,-0.38607 l 0.44893,-0.38606 0.0442,-8.23669 0.0442,-8.2367 -0.4184,-0.49724 c -0.31753,-0.37737 -0.54996,-0.49724 -0.96417,-0.49724 -0.51707,0 -0.54578,-0.0295 -0.54578,-0.56 v -0.56 h 3.84 3.84 v 0.56 c 0,0.52774 -0.0306,0.56 -0.53211,0.56 -0.36507,0 -0.65387,0.12957 -0.92,0.41278 l -0.38789,0.41278 -0.0444,7.92976 c -0.0406,7.24453 -0.0211,7.95548 0.2248,8.22722 0.24407,0.26968 0.54778,0.29746 3.25298,0.29746 2.90205,0 3.00694,-0.0115 3.82904,-0.4212 0.98441,-0.49056 1.76371,-1.46021 2.19624,-2.73266 0.27949,-0.82224 0.30475,-0.84614 0.89448,-0.84614 0.33377,0 0.60686,0.0239 0.60686,0.0532 0,0.0293 -0.396,1.37332 -0.88,2.98681 -0.484,1.61349 -0.88,2.95755 -0.88,2.9868 0,0.0293 -3.384,0.0532 -7.52,0.0532 h -7.52 z m 32.48,0 c 0,-0.48667 0.051,-0.56 0.38958,-0.56 0.72108,0 1.21922,-0.30198 1.46381,-0.88738 0.20195,-0.48334 0.23103,-1.77555 0.19226,-8.54826 l -0.0456,-7.97884 -0.38789,-0.41276 c -0.28584,-0.30416 -0.54894,-0.41276 -1,-0.41276 -0.59289,0 -0.61211,-0.0176 -0.61211,-0.56 v -0.56 h 3.92 3.92 v 0.56 c 0,0.5347 -0.0256,0.56 -0.56728,0.56 -0.38894,0 -0.69072,0.12345 -0.96,0.39273 l -0.39272,0.39272 v 8.23419 c 0,4.5288 0.0447,8.35074 0.0994,8.49319 0.12847,0.33477 0.89079,0.72717 1.41266,0.72717 0.35957,0 0.40795,0.0664 0.40795,0.56 v 0.56 h -3.92 -3.92 z m 23.52,0 c 0,-0.49357 0.0484,-0.56 0.40795,-0.56 0.5761,0 1.25415,-0.3868 1.59839,-0.91183 0.16161,-0.24649 1.99428,-4.54684 4.0726,-9.55632 2.09183,-5.04201 3.89981,-9.1845 4.04991,-9.27918 0.19339,-0.12199 0.35137,-0.12043 0.55093,0.005 0.15564,0.0982 2.07369,4.32155 4.32315,9.51918 4.22465,9.76159 4.46822,10.22271 5.3996,10.22271 0.34758,0 0.39747,0.0703 0.39747,0.56 v 0.56 h -3.76 -3.76 v -0.56 c 0,-0.52839 0.0302,-0.56 0.5352,-0.56 0.33222,0 0.64517,-0.12151 0.82515,-0.32039 0.28221,-0.31183 0.264,-0.38124 -0.68179,-2.6 l -0.97174,-2.27961 -3.33544,-0.0431 -3.33544,-0.0431 -0.91933,2.20307 c -0.50562,1.21169 -0.91871,2.28899 -0.91797,2.394 0.002,0.27454 0.64982,0.68907 1.07696,0.68907 0.30979,0 0.3644,0.0839 0.3644,0.56 v 0.56 h -2.96 -2.96 z m 11.80046,-8.3857 c -0.11025,-0.25613 -0.63246,-1.47921 -1.16046,-2.71795 -0.528,-1.23874 -1.00106,-2.25317 -1.05125,-2.2543 -0.0722,-0.002 -1.8935,4.05813 -2.32472,5.18188 -0.0874,0.2278 0.16866,0.25607 2.31931,0.25607 h 2.41757 z m -144.08002,-31.8696 c -2.36906,-0.17068 -4.45098,-0.52368 -7.02941,-1.19189 -5.31173,-1.37653 -9.74904,-3.79917 -14.05102,-7.67141 -1.2068,-1.08624 -1.36693,-1.17687 -2.8,-1.58466 -3.58274,-1.0195 -5.96394,-2.41163 -8.64931,-5.05669 -2.00383,-1.97375 -3.02997,-3.36924 -4.22032,-5.73936 -1.76909,-3.52246 -2.5269,-6.95946 -2.5269,-11.46064 0,-4.38524 0.63109,-7.4077 2.27776,-10.90901 3.66123,-7.7848 11.22923,-12.36226 19.83877,-11.99936 9.16153,0.38617 16.82044,6.08451 19.5911,14.57604 1.75342,5.3739 1.75386,12.02178 0.002,17.15306 -0.6071,1.77733 -1.98346,4.41351 -3.08418,5.90728 -1.18369,1.60633 -3.43206,3.76329 -4.98449,4.78184 -1.17842,0.77314 -3.94781,2.17015 -4.30207,2.17015 -0.33412,0 -0.18728,0.35563 0.69322,1.67895 1.06552,1.60138 3.3071,3.77274 4.95515,4.79992 2.24179,1.39725 4.70391,2.25659 7.33015,2.55842 l 0.92,0.10573 v 1.02849 1.02849 l -1.08,-0.0229 c -0.594,-0.0126 -1.88981,-0.0812 -2.87957,-0.1525 z m -15.16043,-13.695 c 6.35777,-1.58063 10.30576,-9.62331 9.95464,-20.2792 -0.23376,-7.09429 -2.27215,-12.39461 -5.96045,-15.4987 -5.06821,-4.26544 -11.85779,-3.06359 -15.88808,2.81239 -4.10474,5.98452 -4.53413,18.87126 -0.87634,26.29939 2.66466,5.41129 7.55322,7.96314 12.77023,6.66612 z m -99.44,3.85529 c -0.308,-0.0367 -1.244,-0.18371 -2.08,-0.32672 -7.48496,-1.28041 -13.562,-6.65219 -16.06401,-14.19971 -1.3454,-4.05848 -1.58261,-9.16775 -0.64308,-13.85117 1.92066,-9.57419 8.22698,-15.80965 17.42709,-17.23129 3.05709,-0.47239 7.36022,-0.0964 10.44435,0.91268 4.72939,1.54733 9.05235,5.18256 11.44787,9.62667 3.75084,6.95842 3.9098,16.5162 0.39196,23.5646 -2.96368,5.93805 -8.42556,10.08062 -14.76488,11.19845 -1.42991,0.25214 -5.08754,0.43415 -6.1593,0.30649 z m 4.62384,-3.84829 c 3.80605,-0.99135 6.94,-4.46567 8.63843,-9.57665 1.39933,-4.21088 1.79275,-9.74516 1.0489,-14.75478 -1.13792,-7.66343 -4.4805,-12.26753 -9.91117,-13.65171 -4.19358,-1.06887 -8.62902,0.71271 -11.35872,4.56245 -3.85683,5.4394 -4.85189,16.03583 -2.24147,23.86966 1.88283,5.65037 5.30082,9.11434 9.68019,9.81041 1.06986,0.17005 2.946,0.0526 4.14384,-0.25938 z m 133.14545,3.77522 c -5.15811,-0.64679 -9.21181,-3.47116 -10.95485,-7.63268 -0.875,-2.0891 -0.89444,-2.38514 -0.89444,-13.62578 0,-7.32373 -0.0534,-10.52527 -0.1821,-10.90954 -0.41923,-1.25214 -1.38282,-2.06387 -2.44995,-2.06387 h -0.56795 v -0.96 -0.96 h 6.56 6.55999 v 0.96 0.96 h -0.56795 c -1.09646,0 -2.1518,0.8907 -2.47428,2.08829 -0.11516,0.42765 -0.15498,4.08062 -0.12247,11.23273 l 0.0482,10.59898 0.37231,1.12 c 0.48475,1.45829 1.01812,2.3639 2.01156,3.41538 1.5305,1.61994 3.19172,2.30318 5.61264,2.30841 4.4056,0.01 8.0142,-2.31913 9.24178,-5.96379 0.34403,-1.02145 0.35125,-1.22981 0.40456,-11.68 0.0299,-5.852 0.007,-10.95966 -0.0504,-11.35036 -0.0743,-0.50443 -0.2582,-0.86389 -0.63431,-1.24 -0.50006,-0.50006 -0.5931,-0.52964 -1.66565,-0.52964 h -1.136 v -0.96 -0.96 h 5.28 5.28 v 0.96 0.96 h -1.19107 c -1.02825,0 -1.25245,0.0528 -1.64,0.38601 l -0.44893,0.38601 -0.0929,11.81399 c -0.10288,13.08388 -0.0739,12.71664 -1.18371,15.01156 -1.59564,3.29963 -4.69442,5.52125 -8.94975,6.41639 -1.42357,0.29945 -4.61446,0.41225 -6.16435,0.21791 z m 140.6307,0.005 c -1.27504,-0.17747 -3.18459,-0.76641 -4.85704,-1.49801 -1.06759,-0.46701 -1.32808,-0.52511 -1.7285,-0.38552 -0.51555,0.17972 -0.85342,0.60568 -1.02097,1.28712 -0.10277,0.41797 -0.15538,0.44 -1.05084,0.44 h -0.94265 v -6.4 -6.4 h 0.93653 0.93651 l 0.0997,1.1799 c 0.4092,4.84082 4.2068,8.90449 8.34722,8.93203 1.6492,0.011 2.7863,-0.47044 4.01793,-1.70105 1.61824,-1.6169 2.14738,-3.069 1.7184,-4.71591 -0.62486,-2.399 -2.26982,-3.85302 -8.74547,-7.73031 -4.10782,-2.45956 -5.55792,-3.70862 -6.46661,-5.57018 -1.38417,-2.83562 -1.34595,-5.97209 0.10669,-8.75366 0.85191,-1.63126 1.68328,-2.57329 3.11775,-3.53271 1.64155,-1.09794 2.83582,-1.48431 4.89131,-1.58242 2.01557,-0.0962 3.65821,0.23962 6.03997,1.23481 0.84179,0.35172 1.76,0.6395 2.04048,0.6395 0.57825,0 0.99739,-0.37762 1.17963,-1.06281 0.11353,-0.42682 0.182,-0.46038 1.03077,-0.50518 l 0.90915,-0.048 v 6.16798 6.16799 h -0.93896 -0.93896 l -0.0778,-1.16 c -0.22585,-3.36639 -2.50736,-6.56103 -5.58604,-7.82175 -1.30786,-0.53557 -3.12901,-0.51379 -4.33594,0.0519 -1.21694,0.57034 -2.39293,1.75858 -2.73552,2.76402 -0.60872,1.78648 -0.13539,3.29506 1.55806,4.96587 0.91255,0.90034 1.62034,1.38673 3.60887,2.48 6.63153,3.64593 9.71171,6.38664 10.92624,9.72205 0.45921,1.26113 0.55963,3.73281 0.21208,5.21982 -0.78408,3.3547 -3.82647,6.46227 -7.212,7.36653 -1.19258,0.31854 -3.66072,0.43999 -5.04,0.24801 z M 256.71999,163.2311 v -0.96 h 0.81582 c 1.0516,0 1.80744,-0.36662 2.26165,-1.09703 l 0.36253,-0.58297 0.0498,-13.84 c 0.0346,-9.6188 -0.004,-14.08831 -0.1257,-14.65412 -0.12497,-0.57971 -0.33544,-0.96914 -0.73096,-1.35249 -0.49129,-0.47618 -0.67545,-0.54601 -1.59432,-0.60452 l -1.03886,-0.0661 v -0.94224 -0.94225 l 13.88,0.0409 13.88,0.0409 0.2663,3.52 c 0.14647,1.936 0.27247,3.934 0.28,4.44 l 0.0138,0.92 h -0.78357 -0.78358 l -0.18656,-1.07135 c -0.10262,-0.58924 -0.36562,-1.44981 -0.58445,-1.91238 -0.47822,-1.01088 -1.70507,-2.1627 -2.58411,-2.42606 -0.44421,-0.13307 -2.54046,-0.19021 -6.97832,-0.19021 h -6.34341 l 0.042,5.88 0.042,5.88 h 5.05611 c 5.63843,0 5.69854,-0.0102 6.2356,-1.06296 0.1665,-0.32635 0.34987,-0.99469 0.40752,-1.4852 l 0.10483,-0.89184 h 0.85797 0.85797 v 5.28 5.28 h -0.88 c -0.82728,0 -0.88,-0.0235 -0.88,-0.39213 0,-0.99368 -0.37378,-2.09365 -0.88525,-2.60512 l -0.52275,-0.52275 h -5.22248 -5.22246 l 0.0465,6.84 c 0.0423,6.22938 0.0722,6.88705 0.33424,7.36707 0.42739,0.7828 1.14186,1.15162 2.23224,1.15233 l 0.92,6.4e-4 v 0.96 0.96 h -6.8 -6.8 v -0.96 z m 167.03999,9.6e-4 v -0.96091 h 0.7625 c 1.05541,0 1.79761,-0.42792 2.24067,-1.29184 l 0.36318,-0.70816 -0.0432,-14.24 -0.0432,-14.24 -0.36253,-0.58297 c -0.44366,-0.71351 -1.20646,-1.09708 -2.18164,-1.09708 h -0.73583 v -0.96 -0.96 h 13.04 13.04 v 0.47804 c 0,0.5385 0.44298,6.9563 0.54405,7.88196 l 0.0655,0.6 h -0.84133 -0.84132 l -0.18235,-1.10418 c -0.34741,-2.10368 -1.21455,-3.44492 -2.66338,-4.11961 -0.79125,-0.36847 -0.87101,-0.3731 -6.44117,-0.37465 l -5.64,-0.002 v 5.93016 5.93016 l 5.10859,-0.0502 c 4.90248,-0.0481 5.12679,-0.0637 5.56,-0.38689 0.6738,-0.50261 1.03178,-1.23329 1.12888,-2.30417 l 0.087,-0.9591 h 0.85778 0.85777 v 5.36 5.36 h -0.88 -0.88 l -0.002,-0.52 c -0.002,-0.93135 -0.34037,-1.77892 -0.95785,-2.39639 l -0.6029,-0.60361 h -5.13883 -5.13882 v 6.48727 6.48727 l 0.39272,0.39273 0.39274,0.39273 5.32726,-0.002 c 5.77944,-0.002 6.27304,-0.0585 7.80555,-0.8926 1.54783,-0.84243 2.99047,-2.82077 3.75221,-5.1455 l 0.27523,-0.84 h 1.01224 1.01224 l -0.54302,1.72 c -0.29867,0.946 -1.03859,3.268 -1.64429,5.16 l -1.10125,3.44 -13.38081,0.0409 -13.38082,0.0409 v -0.96091 z m 132.16,-9.6e-4 v -0.96 h 0.74948 c 1.40095,0 2.54522,-0.842 3.37031,-2.48 0.17731,-0.352 3.18281,-7.552 6.67891,-16 6.70874,-16.21107 6.59086,-15.93434 6.86525,-16.11755 0.39643,-0.26471 1.20661,-0.1256 1.45229,0.24935 0.13398,0.20449 3.34483,7.53037 7.13519,16.27974 3.79037,8.74937 7.02565,16.12406 7.18952,16.3882 0.63255,1.01965 1.36616,1.56023 2.23,1.64323 l 0.80904,0.0777 v 0.93965 0.93964 h -6.56 -6.56 v -0.94136 -0.94136 l 1.04335,-0.0664 c 1.19528,-0.0761 1.73214,-0.4498 1.7268,-1.20195 -0.002,-0.24689 -0.74581,-2.15976 -1.65347,-4.25081 l -1.65029,-3.80192 -5.91387,0.0419 -5.91387,0.0419 -1.59628,3.76 c -0.87795,2.068 -1.59764,3.92936 -1.59932,4.13636 -0.005,0.63023 0.69571,1.17704 1.62272,1.26611 l 0.81424,0.0782 v 0.93965 0.93964 h -5.12 -5.12 z m 21.08088,-14.04 c -0.2138,-0.7831 -4.20786,-9.77544 -4.29772,-9.67598 -0.11649,0.12893 -4.30316,9.73055 -4.30316,9.86879 0,0.048 1.9524,0.0872 4.33865,0.0872 4.05451,0 4.33367,-0.0183 4.26223,-0.28 z m 60.19911,14.05981 v -0.94019 l 0.88664,-0.0735 c 0.94,-0.078 1.49541,-0.38687 2.06347,-1.1477 0.32744,-0.43856 0.32989,-0.54803 0.32989,-14.79012 0,-14.15607 -0.004,-14.35666 -0.32808,-14.97362 -0.41033,-0.78215 -1.18995,-1.21466 -2.18942,-1.21466 h -0.7625 v -0.96 -0.96 l 8.52,10e-4 c 8.43107,0.001 10.19911,0.0819 12.67159,0.57767 4.19286,0.84073 7.81326,2.86996 10.15809,5.69359 1.20352,1.44927 2.61549,4.20527 3.13923,6.12743 0.59026,2.16624 0.7888,4.58062 0.57453,6.98636 -0.7989,8.96977 -7.48712,15.58387 -16.63581,16.45144 -0.9392,0.0891 -5.46963,0.16199 -10.06763,0.16206 l -8.36,1.7e-4 z m 15.94184,-2.43033 c 4.01563,-0.44777 6.60818,-1.59472 9.03826,-3.99857 1.20032,-1.18736 1.49201,-1.59088 2.19761,-3.04 1.92603,-3.95553 2.23019,-9.14101 0.79722,-13.59091 -1.55934,-4.84228 -5.21672,-7.98759 -10.32634,-8.88052 -1.64414,-0.28732 -5.88171,-0.35814 -6.48859,-0.10844 l -0.44,0.18104 v 14.63416 14.63415 l 0.76,0.10239 c 0.418,0.0563 0.832,0.12704 0.92,0.15717 0.34119,0.11682 2.08151,0.0724 3.54184,-0.0905 z m -262.82183,2.33143 v -0.88091 h 0.85634 c 1.01098,0 1.74894,-0.41906 2.25501,-1.28055 0.32485,-0.55297 0.32865,-0.72346 0.32865,-14.71945 0,-13.84071 -0.007,-14.17439 -0.32,-14.79789 -0.45753,-0.91206 -1.20547,-1.36211 -2.26366,-1.36211 h -0.85634 v -0.96 -0.96 h 13.04 c 7.172,0 13.04117,0.054 13.04259,0.12 0.002,0.066 0.14495,1.992 0.31895,4.28 0.17398,2.288 0.31681,4.25 0.31741,4.36 0,0.13589 -0.28104,0.2 -0.87895,0.2 h -0.88 l -0.002,-0.6 c -0.005,-1.46583 -0.84595,-3.37411 -1.81265,-4.11144 -1.11194,-0.84812 -1.45261,-0.88856 -7.48556,-0.88856 h -5.57988 v 5.92831 5.92832 l 5.10859,-0.0483 c 4.86865,-0.046 5.12977,-0.0638 5.56,-0.37864 0.60715,-0.44429 1.05577,-1.39755 1.14093,-2.42427 l 0.0701,-0.8454 h 0.86017 0.8602 v 5.36 5.36 h -0.85762 -0.85762 l -0.0887,-0.85959 c -0.0488,-0.47276 -0.23956,-1.15528 -0.42395,-1.5167 -0.57835,-1.13366 -0.63392,-1.14371 -6.32414,-1.14371 h -5.04795 v 6.48764 6.48764 l 0.42336,0.39236 0.42336,0.39236 5.29664,-0.002 c 5.6352,-0.002 6.18502,-0.0603 7.69817,-0.81601 1.51493,-0.75659 3.29083,-3.15796 3.92579,-5.30841 l 0.22253,-0.75369 h 0.98952 0.98952 l -0.30334,1 c -0.16683,0.55 -0.8648,2.836 -1.55104,5.08 l -1.2477,4.08 -13.4734,0.0409 -13.47341,0.0409 v -0.88091 z m 67.36,0.0215 v -0.85761 l 0.88659,-0.0915 c 1.00847,-0.10408 1.72776,-0.46911 2.21669,-1.12492 0.33522,-0.44965 0.33691,-0.5116 0.38022,-13.93856 l 0.0435,-13.48691 -1.44541,-1.60645 c -1.56594,-1.7404 -1.93091,-1.95642 -3.30547,-1.95642 h -0.85613 v -0.96 -0.96 l 4.84,0.0109 4.84,0.0109 9.08448,10.50909 c 4.99648,5.77999 9.44042,10.90508 9.87544,11.38908 l 0.79093,0.88 -0.0354,-9.70957 -0.0354,-9.70957 -0.48,-0.51014 c -0.61168,-0.65006 -1.31842,-0.95071 -2.23486,-0.95071 h -0.72514 v -0.96 -0.96 h 5.28 5.28 v 0.96 0.96 h -0.72514 c -0.88784,0 -1.62553,0.2986 -2.15486,0.87224 l -0.4,0.43348 -0.0422,16.30714 -0.0422,16.30714 h -0.76597 -0.76595 l -11.11181,-12.91955 -11.11181,-12.91954 -0.0411,11.10764 c -0.0388,10.47841 -0.0246,11.13946 0.25032,11.66922 0.35411,0.68235 1.22699,1.16578 2.28923,1.26784 l 0.78155,0.0751 v 0.85965 0.85964 h -5.28 -5.28 z m 67.68,0 v -0.85761 l 0.91059,-0.094 c 1.0233,-0.10562 1.5744,-0.44109 2.04941,-1.24752 0.31243,-0.53042 0.32102,-0.87183 0.36344,-14.43341 0.03,-9.58689 -0.0102,-14.08926 -0.12963,-14.53286 -0.0952,-0.35349 -0.41031,-0.90158 -0.70026,-1.21797 -0.47325,-0.51641 -0.62776,-0.58253 -1.51037,-0.64638 l -0.98318,-0.0711 v -0.94077 -0.94077 h 6.72 6.72 v 0.96 0.96 h -0.85634 c -1.01098,0 -1.74894,0.41906 -2.25501,1.28054 -0.3247,0.55274 -0.32865,0.72601 -0.32865,14.42892 v 13.86947 l 0.46993,0.49053 0.46994,0.49054 4.89006,-0.002 c 3.56802,-0.001 5.10635,-0.0597 5.69007,-0.21559 2.47382,-0.66082 4.18003,-2.38799 5.29753,-5.36258 l 0.5184,-1.37993 0.97203,-0.0476 c 0.53463,-0.0262 0.97204,0.005 0.97204,0.0686 0,0.0991 -1.21717,4.20749 -2.66018,8.97902 l -0.39918,1.32 H 538.4703 525.35998 v -0.85761 z m 71.99999,-0.0224 v -0.88 h 0.6061 c 0.75728,0 1.91034,-0.57624 2.34454,-1.17168 0.32549,-0.44636 0.32986,-0.61059 0.37202,-13.95731 l 0.0427,-13.50564 -1.39472,-1.54424 c -0.77045,-0.85305 -1.62872,-1.64202 -1.91752,-1.76269 -0.28755,-0.12014 -0.92112,-0.21844 -1.40795,-0.21844 H 595.12 v -0.96 -0.96 h 4.86276 4.86275 l 9.81725,11.37597 9.81724,11.37597 0.0413,-9.48373 c 0.0389,-8.93424 0.0243,-9.51652 -0.2524,-10.04962 -0.35805,-0.68996 -1.43325,-1.29859 -2.29405,-1.29859 h -0.61483 v -0.96 -0.96 h 5.2 5.2 v 0.96 0.96 h -0.80513 c -0.96365,0 -1.69247,0.28445 -2.23487,0.87224 l -0.4,0.43348 -0.0422,16.30714 -0.0422,16.30714 -0.75776,-8e-4 -0.75778,-8e-4 -10.86611,-12.63804 c -5.97637,-6.95092 -10.99981,-12.75903 -11.1632,-12.9069 -0.28921,-0.26173 -0.29593,0.0282 -0.25389,10.94719 0.0428,11.11849 0.0461,11.21997 0.37992,11.66769 0.47434,0.63622 1.17965,1.00735 2.12784,1.11965 l 0.81544,0.0966 v 0.85771 0.85771 h -5.2 -5.2 v -0.88 z M 361.27999,97.949146 c -4.74498,-0.428915 -8.61941,-2.145893 -11.47722,-5.086209 -1.92406,-1.979604 -3.0007,-3.90517 -3.77438,-6.750461 l -0.41383,-1.521837 -0.0873,-13.76 c -0.0967,-15.244073 -0.013,-14.137674 -1.15365,-15.231891 -0.70299,-0.674332 -1.54016,-1.008109 -2.52851,-1.008109 h -0.80513 v -1.12 -1.12 h 8.64 8.64 v 1.12 1.12 h -0.80514 c -1.4299,0 -2.6639,0.781905 -3.40888,2.16 -0.34486,0.637927 -0.34614,0.679907 -0.39357,12.96 -0.0483,12.512502 0.0194,14.53557 0.54863,16.380816 0.73414,2.55997 2.50049,4.929222 4.58611,6.151474 2.03301,1.191424 4.92022,1.632979 7.60825,1.163563 5.00829,-0.874607 8.40047,-3.695146 9.46907,-7.87337 0.30218,-1.181504 0.31551,-1.822902 0.31527,-15.168077 0,-12.95 -0.02,-13.973164 -0.28,-14.483032 -0.5021,-0.984689 -0.98303,-1.204477 -2.77101,-1.266367 l -1.58874,-0.05499 v -1.105007 -1.105007 h 6.8 6.8 v 1.104555 1.104556 l -1.50865,0.05544 c -1.22283,0.04494 -1.59416,0.118795 -1.96,0.389835 -0.97504,0.722372 -0.92346,-0.08819 -1.01703,15.98561 -0.0958,16.458995 -0.0209,15.396811 -1.27641,18.107728 -1.42853,3.084539 -3.64423,5.334061 -6.81551,6.91953 -3.14179,1.570724 -7.36875,2.290441 -11.34239,1.931249 z m 205.03999,-0.33115 c -1.43477,-0.168408 -3.57013,-0.806523 -4.83415,-1.444597 -1.53176,-0.773224 -2.39825,-0.535512 -2.85829,0.784123 -0.17406,0.499327 -0.20425,0.513117 -1.12321,0.513117 h -0.94435 v -6.4 -6.4 h 0.94376 0.94376 l 0.11409,1.16 c 0.15026,1.527616 0.72703,3.318677 1.47429,4.578198 0.84899,1.430965 2.52608,2.963786 4.02698,3.680552 1.13531,0.542178 1.31929,0.581242 2.73712,0.58113 1.90166,-1.5e-4 2.63648,-0.305802 4.08952,-1.701078 3.12323,-2.99909 2.40302,-6.034351 -2.21752,-9.345615 -0.7744,-0.554965 -3.00021,-1.968464 -4.94623,-3.141107 -2.66523,-1.606027 -3.7988,-2.388682 -4.5943,-3.17208 -2.2837,-2.248966 -3.17727,-5.30967 -2.49301,-8.539344 0.72259,-3.410623 3.63331,-6.497022 6.96275,-7.383006 2.07546,-0.552293 5.16875,-0.18055 7.89776,0.949125 2.33632,0.967122 2.97546,0.922972 3.32071,-0.229386 l 0.19097,-0.637389 h 0.85467 0.85468 v 6.16 6.16 h -0.86727 -0.86726 l -0.11309,-1.08 c -0.31499,-3.008397 -1.76531,-5.513985 -4.09038,-7.066606 -2.5441,-1.69888 -5.43287,-1.682353 -7.30333,0.04178 -1.04088,0.959452 -1.53567,2.024048 -1.53594,3.304822 0,2.264485 1.43744,3.958298 4.94338,5.823085 6.8244,3.629851 10.06373,6.482832 11.29486,9.947769 0.4736,1.332896 0.57176,3.386831 0.23434,4.903477 -1.20087,5.397642 -6.14874,8.651016 -12.09531,7.953026 z m -102.64478,-0.2124 c -0.45264,-0.195979 -0.9284,-1.237298 -7.17868,-15.712423 -3.68164,-8.526393 -6.87294,-15.837195 -7.09177,-16.246225 -0.60437,-1.129658 -1.47702,-1.904261 -2.26429,-2.009855 l -0.66048,-0.08859 V 62.40957 61.470637 h 6.4 6.4 v 0.96 0.96 h -0.9723 c -0.86882,0 -1.02384,0.05152 -1.45634,0.484027 -0.37642,0.376409 -0.46157,0.573509 -0.38302,0.886486 0.12849,0.511978 8.86747,20.424468 9.04105,20.600821 0.14183,0.14409 8.33061,-20.18222 8.33061,-20.678363 0,-0.7865 -0.65496,-1.292971 -1.67205,-1.292971 h -0.56795 v -0.96 -0.96 h 4.48 4.48 v 0.96 c 0,0.940461 -0.009,0.960012 -0.44,0.960598 -0.67459,9.12e-4 -1.41024,0.539261 -2.04659,1.497684 -0.3805,0.573061 -2.67824,6.207209 -6.73957,16.525611 -3.38923,8.610859 -6.24586,15.738379 -6.34805,15.838936 -0.3188,0.31371 -0.80659,0.370331 -1.31057,0.152128 z M 218.15999,96.350639 v -1.12 h 1.58959 c 0.87427,0 1.76627,-0.06718 1.98222,-0.149282 0.68264,-0.259536 1.58549,-1.179595 1.97198,-2.009553 l 0.37309,-0.801165 0.002,-17.729011 0.002,-17.729012 -4.6,0.04901 c -4.36339,0.04649 -4.63291,0.06683 -5.24,0.395455 -0.9068,0.490818 -1.75758,1.42925 -2.22448,2.453557 -0.3708,0.813475 -0.8956,3.216533 -0.8956,4.100958 0,0.356607 -0.0568,0.379042 -0.96,0.379042 h -0.96 l -0.003,-0.76 c -0.002,-0.418 0.0798,-2.92 0.18083,-5.56 0.13618,-3.560251 0.24116,-4.892981 0.40645,-5.16 l 0.22287,-0.36 h 18.14488 c 16.28201,0 18.1707,0.02581 18.39631,0.251429 0.13829,0.138285 0.25271,0.264285 0.25429,0.28 0.021,0.209846 0.47221,10.550027 0.47427,10.868571 0.003,0.431274 -0.0161,0.44 -0.95408,0.44 -1.08166,0 -1.02737,0.07617 -1.19723,-1.68 -0.26293,-2.718345 -1.57397,-4.804701 -3.41297,-5.431316 -0.58876,-0.20059 -1.55984,-0.248684 -5.0214,-0.248684 h -4.2915 v 17.82173 17.821729 l 0.44694,0.855538 c 0.27863,0.533353 0.70536,1.037329 1.13316,1.33827 0.64528,0.45393 0.79044,0.485965 2.43305,0.53689 l 1.74685,0.05415 v 1.105845 1.105843 h -10 -10 z m 34.08,0.16 v -0.96 l 0.76,-3.2e-4 c 0.97589,-3.2e-4 1.78347,-0.412381 2.19456,-1.119752 0.32066,-0.551773 0.32544,-0.770381 0.32544,-14.88 0,-13.810222 -0.011,-14.342082 -0.30786,-14.940297 -0.36468,-0.734773 -1.26196,-1.210866 -2.29214,-1.216189 l -0.68,-0.0034 v -0.96 -0.96 h 6.72 6.72 v 0.96 0.96 h -0.64514 c -1.22363,0 -2.16592,0.648807 -2.5327,1.743876 -0.1229,0.366944 -0.18216,2.435957 -0.18216,6.359999 v 5.816125 h 7.04893 7.04892 l -0.0489,-5.96 c -0.0464,-5.649439 -0.0661,-5.993349 -0.3782,-6.6 -0.40382,-0.784899 -1.42911,-1.36 -2.42463,-1.36 h -0.6861 v -0.96 -0.96 h 6.8 6.8 v 0.96 0.96 l -0.76,0.0035 c -1.16325,0.0054 -2.00719,0.462396 -2.41695,1.308856 -0.34276,0.708074 -0.34305,0.720327 -0.34305,14.784242 v 14.075583 l 0.36,0.713902 c 0.44427,0.881026 1.15883,1.273311 2.32,1.273655 l 0.84,3.2e-4 v 0.96 0.96 h -6.8 -6.8 v -0.94077 -0.94077 l 0.96214,-0.06959 c 1.13476,-0.08208 1.69602,-0.430406 2.15786,-1.33919 0.30147,-0.593213 0.32272,-0.997963 0.36689,-6.989675 l 0.0469,-6.36 h -7.05363 -7.05363 l 0.0467,6.52 c 0.0446,6.220304 0.0617,6.54574 0.37219,7.08 0.41109,0.707371 1.21867,1.119432 2.19456,1.119752 l 0.76,3.2e-4 v 0.96 0.96 h -6.72 -6.72 v -0.96 z m 39.68,0 v -0.96 h 0.76249 c 1.05541,0 1.79762,-0.42791 2.24068,-1.291838 l 0.36318,-0.708162 -0.0432,-14.268333 c -0.0427,-14.127549 -0.0464,-14.272692 -0.37306,-14.710114 -0.56811,-0.76081 -1.1235,-1.069701 -2.06347,-1.147652 l -0.88664,-0.07353 v -0.940187 -0.940187 h 13.04 c 7.172,0 13.04048,0.018 13.04105,0.04 0,0.022 0.14343,1.912 0.31741,4.2 0.174,2.288 0.31752,4.286 0.31895,4.44 0.002,0.232122 -0.14388,0.28 -0.85396,0.28 h -0.85656 l -0.18828,-1.140146 c -0.3557,-2.153806 -1.54114,-3.826304 -3.0277,-4.271691 -0.42893,-0.128506 -2.38494,-0.188163 -6.16947,-0.188163 h -5.54144 v 5.92 5.92 h 4.97531 c 5.58051,0 5.57547,9.6e-4 6.22147,-1.148472 0.19082,-0.339512 0.38767,-1.011997 0.43746,-1.494411 l 0.0905,-0.877117 h 0.93761 0.93762 v 5.28 5.28 h -0.93778 -0.93777 l -0.0847,-0.934056 c -0.10445,-1.151819 -0.45785,-1.864112 -1.1275,-2.272421 -0.47914,-0.292141 -0.83539,-0.312366 -5.51224,-0.312925 l -5,-5.98e-4 v 6.487272 6.487274 l 0.39272,0.392726 0.39273,0.392728 h 5.25365 c 5.57443,0 6.28115,-0.07423 7.76578,-0.815616 1.53045,-0.764272 2.99489,-2.654277 3.80012,-4.904384 l 0.35788,-1 h 0.99304 0.99305 l -1.60585,5.12 -1.60584,5.12 h -13.40864 -13.40864 z m 98.07999,0.02238 v -0.937614 l 0.862,-0.08897 c 1.0898,-0.112477 1.78647,-0.470803 2.18448,-1.123571 0.30324,-0.497325 0.31234,-0.904906 0.31293,-14.005581 V 66.883941 l -1.22982,-1.437964 c -0.6764,-0.79088 -1.44715,-1.550348 -1.71277,-1.687706 -0.26562,-0.137358 -0.93621,-0.286125 -1.49018,-0.330593 l -1.00664,-0.08085 v -0.938095 -0.938094 h 4.77824 4.77826 l 9.82174,11.382486 9.82176,11.382487 0.0413,-9.490247 c 0.0389,-8.940553 0.0243,-9.523023 -0.2524,-10.056138 -0.37353,-0.719793 -1.43168,-1.298588 -2.37405,-1.298588 H 413.84 v -0.96 -0.96 h 5.28 5.28 v 0.96 0.96 l -0.68,0.0035 c -0.93613,0.0048 -1.96507,0.505828 -2.35609,1.147183 -0.31799,0.521564 -0.32272,0.766158 -0.32332,16.729303 v 16.2 l -0.76,-0.01035 -0.76,-0.01035 -11.12,-12.90878 -11.11999,-12.908777 -0.0412,11.199125 c -0.0394,10.708366 -0.0282,11.216652 0.25672,11.599124 0.45089,0.605381 1.19436,0.971756 2.17788,1.073266 l 0.8866,0.0915 v 0.937614 0.937616 h -5.28 -5.28 v -0.937616 z m 38.72,-0.02238 v -0.96 h 0.72514 c 1.30422,0 2.23718,-0.62272 2.6127,-1.743875 0.13063,-0.390019 0.18216,-4.465349 0.18216,-14.406098 V 65.538444 l -0.36,-0.704536 c -0.49417,-0.967122 -0.99923,-1.291782 -2.1755,-1.398442 l -0.9845,-0.08927 V 62.408418 61.47064 h 6.72 6.72 v 0.940187 0.940187 l -0.88664,0.07353 c -0.93998,0.07795 -1.49537,0.386848 -2.06347,1.147666 -0.32664,0.437452 -0.3303,0.582047 -0.3724,14.711131 l -0.0425,14.269336 0.3625,0.718982 c 0.43635,0.865451 1.16051,1.278381 2.24251,1.278736 l 0.76,3.2e-4 v 0.96 0.96 h -6.72 -6.72 v -0.96 z m 56.16,0 v -0.96 h 0.85634 c 1.02856,0 1.80339,-0.447176 2.2234,-1.283189 0.26002,-0.517515 0.27978,-1.553086 0.28,-14.673573 0,-12.617568 -0.0272,-14.185293 -0.25793,-14.762063 -0.35309,-0.882453 -0.98453,-1.293631 -2.14869,-1.399194 l -0.95312,-0.08642 v -0.937778 -0.937778 h 13.03019 13.03021 l 0.0886,0.68 c 0.0487,0.374 0.19768,2.084 0.33101,3.8 0.13333,1.716 0.28227,3.426 0.33101,3.8 l 0.0886,0.68 h -0.94757 -0.94758 l -0.0863,-0.92 c -0.1872,-1.996094 -1.25086,-3.698008 -2.73128,-4.370178 -0.61393,-0.278748 -1.12131,-0.303073 -6.38886,-0.306308 l -5.72197,-0.0035 0.042,5.88 0.042,5.88 h 5.17243 5.17242 l 0.52961,-0.578045 c 0.49752,-0.543024 0.88554,-1.660293 0.88554,-2.54983 0,-0.274819 0.11473,-0.312125 0.96,-0.312125 h 0.96 v 5.28 5.28 h -0.96 c -0.94626,0 -0.96,-0.0064 -0.96,-0.45096 0,-0.830357 -0.46154,-2.03148 -0.96659,-2.515502 l -0.49413,-0.473538 h -5.14963 -5.14965 v 6.453941 6.453941 l 0.45979,0.395403 0.45978,0.395403 5.54022,-0.05031 c 5.25698,-0.04774 5.58814,-0.06836 6.47784,-0.403429 2.02542,-0.7628 3.75914,-2.702251 4.5813,-5.12495 l 0.39366,-1.16 h 1.0037 c 0.55204,0 1.00371,0.0466 1.00371,0.103549 0,0.05695 -0.6164,2.018952 -1.36979,4.36 -0.75338,2.341048 -1.47917,4.598451 -1.61285,5.016451 l -0.24307,0.76 h -13.42716 -13.42713 z m 34.24,0 v -0.96 h 0.84249 c 1.08405,0 1.84618,-0.407907 2.26943,-1.214661 0.32363,-0.616859 0.32808,-0.818443 0.32808,-14.865339 0,-13.952242 -0.006,-14.250978 -0.32,-14.783275 -0.5028,-0.853619 -1.0712,-1.186989 -2.15786,-1.26559 l -0.96214,-0.0696 v -0.94077 -0.940769 h 7.2863 c 9.58845,0 11.59149,0.23143 14.58672,1.685332 3.24438,1.574841 4.7388,4.124765 4.73227,8.074668 -0.003,1.96245 -0.30469,2.993514 -1.33966,4.582045 -1.09202,1.676101 -2.69522,2.990414 -4.87768,3.998781 -0.65338,0.301875 -1.18795,0.58555 -1.18795,0.630387 0,0.173136 10.00622,13.150552 10.7032,13.881341 0.86115,0.902932 1.4134,1.227446 2.08884,1.227446 h 0.48796 v 0.96 0.96 h -4.28415 -4.28414 l -6.13591,-8.08 -6.13588,-8.08 h -0.78535 -0.78532 l 0.0454,6.2 c 0.0431,5.893038 0.0616,6.23096 0.37346,6.825339 0.41033,0.782147 1.18995,1.214661 2.18942,1.214661 h 0.7625 v 0.96 0.96 h -6.72 -6.72 z m 13.52,-18.403869 c 1.65673,-0.233022 3.17966,-1.037049 4.36558,-2.3048 1.34149,-1.434065 1.70958,-2.399549 1.71232,-4.491331 0.002,-1.405939 -0.0502,-1.711637 -0.42925,-2.520422 -0.94537,-2.017302 -3.06249,-3.563848 -5.42395,-3.962158 -1.16265,-0.196107 -2.49193,-0.131227 -3.25494,0.158871 l -0.40976,0.155789 v 6.457293 c 0,3.551512 0.048,6.505294 0.10667,6.56396 0.15656,0.156571 2.04371,0.124185 3.33333,-0.0572 z m 52.23999,18.422509 v -0.941362 l 1.03828,-0.06611 c 1.21747,-0.07752 1.76628,-0.405944 2.24172,-1.341491 0.31277,-0.615437 0.32,-0.946233 0.32,-14.629675 v -14 l -0.4,-0.8 c -0.4862,-0.972409 -1.15785,-1.359396 -2.36,-1.359751 l -0.84,-2.49e-4 v -0.96 -0.96 h 6.8 6.8 v 0.96 0.96 l -0.68,0.0035 c -0.374,0.0019 -0.9891,0.143803 -1.36689,0.315268 -0.5424,0.246168 -0.7612,0.472637 -1.04,1.076486 l -0.35311,0.764732 v 14 c 0,13.683442 0.007,14.014238 0.32,14.629675 0.46184,0.908784 1.02311,1.257111 2.15786,1.339191 l 0.96214,0.0696 v 0.940769 0.94077 h -6.8 -6.8 z m 28,-0.01864 v -0.96 h 0.8425 c 1.13781,0 1.86512,-0.403507 2.3175,-1.285741 l 0.36,-0.702064 V 79.356737 65.150639 h -3.76513 c -2.81549,0 -3.89501,0.05488 -4.28,0.2176 -1.2372,0.522885 -2.08223,1.970549 -2.38021,4.077688 l -0.18451,1.304712 h -0.86778 c -0.86048,0 -0.86709,-0.0037 -0.78341,-0.44 0.0464,-0.242 0.13178,-2.204 0.18968,-4.36 0.0861,-3.205724 0.15045,-3.97102 0.35312,-4.2 0.23264,-0.262834 1.14852,-0.28 14.93935,-0.28 h 14.69152 l 0.22566,0.36 c 0.16005,0.255308 0.25485,1.174271 0.326,3.16 0.0552,1.54 0.14515,3.466 0.19994,4.28 l 0.0996,1.48 h -0.88352 -0.8835 l -0.19146,-1.309376 c -0.32181,-2.200852 -0.94688,-3.389817 -2.08825,-3.972101 -0.57106,-0.291328 -0.94592,-0.318523 -4.39074,-0.318523 h -3.76637 v 14.28 c 0,13.275898 0.0199,14.319152 0.28,14.836811 0.42002,0.836013 1.19485,1.283189 2.22341,1.283189 h 0.85634 v 0.96 0.96 h -6.72 -6.72 v -0.96 z m 35.84,0.100667 v -0.859334 l 0.95672,-0.108242 c 0.69711,-0.07887 1.09378,-0.22356 1.46176,-0.533195 0.92232,-0.77608 0.94152,-0.922402 0.94152,-7.175696 V 82.228761 L 647.09378,74.6097 c -2.7424,-4.190483 -5.36352,-8.195061 -5.8247,-8.899061 -0.97111,-1.482374 -1.51029,-1.932043 -2.62524,-2.189402 l -0.80387,-0.185557 v -0.932521 -0.93252 h 6.64 6.64 v 0.96 0.96 h -0.7323 c -0.6025,0 -0.81855,0.08623 -1.21872,0.48641 -0.38944,0.389435 -0.46807,0.578112 -0.39442,0.946371 0.10099,0.505011 8.25387,13.015694 8.49466,13.035158 0.22864,0.01848 7.76208,-12.896806 7.76672,-13.315212 0.007,-0.630985 -0.67586,-1.152727 -1.50866,-1.152727 h -0.72728 v -0.96 -0.96 h 4.8 4.8 v 0.937912 0.937911 l -0.88886,0.178509 c -1.13376,0.227691 -2.11824,0.932563 -2.91455,2.086776 -0.34109,0.494391 -2.68905,4.43869 -5.21768,8.765111 l -4.59752,7.866218 0.0493,5.733782 c 0.0427,4.970783 0.0853,5.813157 0.31966,6.330277 0.34813,0.768037 1.08736,1.209256 2.24558,1.340293 l 0.92405,0.104544 v 0.859334 0.859333 h -6.8 -6.8 z"
       id="path13467" />
  </g>
</svg>
